<svg id="visual" viewBox="0 0 900 600" width="900" height="600" xmlns="http://www.w3.org/2000/svg" xmlns:xlink="http://www.w3.org/1999/xlink" version="1.1"><rect x="0" y="0" width="900" height="600" fill="#140021"></rect><path d="M0 143L39 143L39 13L78 13L78 208L117 208L117 136L157 136L157 383L196 383L196 45L235 45L235 444L274 444L274 74L313 74L313 355L352 355L352 529L391 529L391 162L430 162L430 545L470 545L470 115L509 115L509 210L548 210L548 293L587 293L587 436L626 436L626 350L665 350L665 504L704 504L704 415L743 415L743 309L783 309L783 121L822 121L822 362L861 362L861 468L900 468L900 334L900 601L900 601L861 601L861 601L822 601L822 601L783 601L783 601L743 601L743 601L704 601L704 601L665 601L665 601L626 601L626 601L587 601L587 601L548 601L548 601L509 601L509 601L470 601L470 601L430 601L430 601L391 601L391 601L352 601L352 601L313 601L313 601L274 601L274 601L235 601L235 601L196 601L196 601L157 601L157 601L117 601L117 601L78 601L78 601L39 601L39 601L0 601Z" fill="#9900ff"></path><path d="M0 136L39 136L39 237L78 237L78 561L117 561L117 280L157 280L157 158L196 158L196 136L235 136L235 571L274 571L274 557L313 557L313 342L352 342L352 458L391 458L391 528L430 528L430 137L470 137L470 396L509 396L509 350L548 350L548 111L587 111L587 544L626 544L626 480L665 480L665 168L704 168L704 447L743 447L743 283L783 283L783 148L822 148L822 252L861 252L861 65L900 65L900 167L900 601L900 601L861 601L861 601L822 601L822 601L783 601L783 601L743 601L743 601L704 601L704 601L665 601L665 601L626 601L626 601L587 601L587 601L548 601L548 601L509 601L509 601L470 601L470 601L430 601L430 601L391 601L391 601L352 601L352 601L313 601L313 601L274 601L274 601L235 601L235 601L196 601L196 601L157 601L157 601L117 601L117 601L78 601L78 601L39 601L39 601L0 601Z" fill="#8a0be9"></path><path d="M0 342L39 342L39 302L78 302L78 586L117 586L117 433L157 433L157 282L196 282L196 158L235 158L235 98L274 98L274 561L313 561L313 555L352 555L352 203L391 203L391 146L430 146L430 244L470 244L470 503L509 503L509 144L548 144L548 512L587 512L587 215L626 215L626 216L665 216L665 413L704 413L704 493L743 493L743 551L783 551L783 207L822 207L822 366L861 366L861 476L900 476L900 431L900 601L900 601L861 601L861 601L822 601L822 601L783 601L783 601L743 601L743 601L704 601L704 601L665 601L665 601L626 601L626 601L587 601L587 601L548 601L548 601L509 601L509 601L470 601L470 601L430 601L430 601L391 601L391 601L352 601L352 601L313 601L313 601L274 601L274 601L235 601L235 601L196 601L196 601L157 601L157 601L117 601L117 601L78 601L78 601L39 601L39 601L0 601Z" fill="#7b12d4"></path><path d="M0 289L39 289L39 246L78 246L78 290L117 290L117 249L157 249L157 184L196 184L196 322L235 322L235 475L274 475L274 254L313 254L313 447L352 447L352 404L391 404L391 401L430 401L430 523L470 523L470 153L509 153L509 426L548 426L548 207L587 207L587 285L626 285L626 281L665 281L665 387L704 387L704 536L743 536L743 276L783 276L783 374L822 374L822 535L861 535L861 492L900 492L900 346L900 601L900 601L861 601L861 601L822 601L822 601L783 601L783 601L743 601L743 601L704 601L704 601L665 601L665 601L626 601L626 601L587 601L587 601L548 601L548 601L509 601L509 601L470 601L470 601L430 601L430 601L391 601L391 601L352 601L352 601L313 601L313 601L274 601L274 601L235 601L235 601L196 601L196 601L157 601L157 601L117 601L117 601L78 601L78 601L39 601L39 601L0 601Z" fill="#6d14be"></path><path d="M0 272L39 272L39 199L78 199L78 566L117 566L117 191L157 191L157 586L196 586L196 533L235 533L235 555L274 555L274 263L313 263L313 211L352 211L352 461L391 461L391 220L430 220L430 581L470 581L470 565L509 565L509 207L548 207L548 499L587 499L587 356L626 356L626 515L665 515L665 515L704 515L704 283L743 283L743 196L783 196L783 581L822 581L822 293L861 293L861 513L900 513L900 210L900 601L900 601L861 601L861 601L822 601L822 601L783 601L783 601L743 601L743 601L704 601L704 601L665 601L665 601L626 601L626 601L587 601L587 601L548 601L548 601L509 601L509 601L470 601L470 601L430 601L430 601L391 601L391 601L352 601L352 601L313 601L313 601L274 601L274 601L235 601L235 601L196 601L196 601L157 601L157 601L117 601L117 601L78 601L78 601L39 601L39 601L0 601Z" fill="#5f15a9"></path><path d="M0 309L39 309L39 493L78 493L78 381L117 381L117 289L157 289L157 404L196 404L196 338L235 338L235 496L274 496L274 275L313 275L313 259L352 259L352 486L391 486L391 253L430 253L430 596L470 596L470 406L509 406L509 564L548 564L548 332L587 332L587 377L626 377L626 553L665 553L665 412L704 412L704 264L743 264L743 411L783 411L783 259L822 259L822 589L861 589L861 287L900 287L900 519L900 601L900 601L861 601L861 601L822 601L822 601L783 601L783 601L743 601L743 601L704 601L704 601L665 601L665 601L626 601L626 601L587 601L587 601L548 601L548 601L509 601L509 601L470 601L470 601L430 601L430 601L391 601L391 601L352 601L352 601L313 601L313 601L274 601L274 601L235 601L235 601L196 601L196 601L157 601L157 601L117 601L117 601L78 601L78 601L39 601L39 601L0 601Z" fill="#521594"></path><path d="M0 414L39 414L39 506L78 506L78 429L117 429L117 510L157 510L157 467L196 467L196 334L235 334L235 317L274 317L274 551L313 551L313 369L352 369L352 353L391 353L391 528L430 528L430 285L470 285L470 376L509 376L509 334L548 334L548 512L587 512L587 567L626 567L626 557L665 557L665 327L704 327L704 476L743 476L743 413L783 413L783 572L822 572L822 342L861 342L861 437L900 437L900 333L900 601L900 601L861 601L861 601L822 601L822 601L783 601L783 601L743 601L743 601L704 601L704 601L665 601L665 601L626 601L626 601L587 601L587 601L548 601L548 601L509 601L509 601L470 601L470 601L430 601L430 601L391 601L391 601L352 601L352 601L313 601L313 601L274 601L274 601L235 601L235 601L196 601L196 601L157 601L157 601L117 601L117 601L78 601L78 601L39 601L39 601L0 601Z" fill="#461480"></path><path d="M0 486L39 486L39 588L78 588L78 527L117 527L117 325L157 325L157 398L196 398L196 441L235 441L235 479L274 479L274 377L313 377L313 525L352 525L352 522L391 522L391 546L430 546L430 387L470 387L470 489L509 489L509 355L548 355L548 457L587 457L587 489L626 489L626 470L665 470L665 583L704 583L704 333L743 333L743 457L783 457L783 441L822 441L822 338L861 338L861 555L900 555L900 525L900 601L900 601L861 601L861 601L822 601L822 601L783 601L783 601L743 601L743 601L704 601L704 601L665 601L665 601L626 601L626 601L587 601L587 601L548 601L548 601L509 601L509 601L470 601L470 601L430 601L430 601L391 601L391 601L352 601L352 601L313 601L313 601L274 601L274 601L235 601L235 601L196 601L196 601L157 601L157 601L117 601L117 601L78 601L78 601L39 601L39 601L0 601Z" fill="#3a136c"></path><path d="M0 449L39 449L39 577L78 577L78 445L117 445L117 518L157 518L157 479L196 479L196 486L235 486L235 449L274 449L274 555L313 555L313 558L352 558L352 435L391 435L391 567L430 567L430 436L470 436L470 533L509 533L509 425L548 425L548 472L587 472L587 468L626 468L626 407L665 407L665 535L704 535L704 434L743 434L743 543L783 543L783 550L822 550L822 464L861 464L861 396L900 396L900 559L900 601L900 601L861 601L861 601L822 601L822 601L783 601L783 601L743 601L743 601L704 601L704 601L665 601L665 601L626 601L626 601L587 601L587 601L548 601L548 601L509 601L509 601L470 601L470 601L430 601L430 601L391 601L391 601L352 601L352 601L313 601L313 601L274 601L274 601L235 601L235 601L196 601L196 601L157 601L157 601L117 601L117 601L78 601L78 601L39 601L39 601L0 601Z" fill="#301059"></path><path d="M0 576L39 576L39 449L78 449L78 498L117 498L117 487L157 487L157 498L196 498L196 455L235 455L235 494L274 494L274 487L313 487L313 592L352 592L352 594L391 594L391 415L430 415L430 445L470 445L470 527L509 527L509 469L548 469L548 436L587 436L587 589L626 589L626 531L665 531L665 489L704 489L704 508L743 508L743 589L783 589L783 559L822 559L822 482L861 482L861 439L900 439L900 551L900 601L900 601L861 601L861 601L822 601L822 601L783 601L783 601L743 601L743 601L704 601L704 601L665 601L665 601L626 601L626 601L587 601L587 601L548 601L548 601L509 601L509 601L470 601L470 601L430 601L430 601L391 601L391 601L352 601L352 601L313 601L313 601L274 601L274 601L235 601L235 601L196 601L196 601L157 601L157 601L117 601L117 601L78 601L78 601L39 601L39 601L0 601Z" fill="#250e46"></path><path d="M0 572L39 572L39 486L78 486L78 552L117 552L117 549L157 549L157 503L196 503L196 595L235 595L235 506L274 506L274 482L313 482L313 589L352 589L352 558L391 558L391 566L430 566L430 518L470 518L470 465L509 465L509 512L548 512L548 466L587 466L587 547L626 547L626 466L665 466L665 505L704 505L704 515L743 515L743 469L783 469L783 531L822 531L822 567L861 567L861 480L900 480L900 582L900 601L900 601L861 601L861 601L822 601L822 601L783 601L783 601L743 601L743 601L704 601L704 601L665 601L665 601L626 601L626 601L587 601L587 601L548 601L548 601L509 601L509 601L470 601L470 601L430 601L430 601L391 601L391 601L352 601L352 601L313 601L313 601L274 601L274 601L235 601L235 601L196 601L196 601L157 601L157 601L117 601L117 601L78 601L78 601L39 601L39 601L0 601Z" fill="#1c0a34"></path><path d="M0 524L39 524L39 549L78 549L78 571L117 571L117 527L157 527L157 576L196 576L196 536L235 536L235 532L274 532L274 532L313 532L313 525L352 525L352 564L391 564L391 576L430 576L430 529L470 529L470 521L509 521L509 583L548 583L548 566L587 566L587 583L626 583L626 509L665 509L665 592L704 592L704 574L743 574L743 586L783 586L783 564L822 564L822 559L861 559L861 597L900 597L900 586L900 601L900 601L861 601L861 601L822 601L822 601L783 601L783 601L743 601L743 601L704 601L704 601L665 601L665 601L626 601L626 601L587 601L587 601L548 601L548 601L509 601L509 601L470 601L470 601L430 601L430 601L391 601L391 601L352 601L352 601L313 601L313 601L274 601L274 601L235 601L235 601L196 601L196 601L157 601L157 601L117 601L117 601L78 601L78 601L39 601L39 601L0 601Z" fill="#150023"></path></svg>