<svg id="visual" viewBox="0 0 900 600" width="900" height="600" xmlns="http://www.w3.org/2000/svg" xmlns:xlink="http://www.w3.org/1999/xlink" version="1.1"><rect x="0" y="0" width="900" height="600" fill="#002233"></rect><path d="M506 0L484.3 5C462.7 10 419.3 20 393.7 30C368 40 360 50 339.8 60C319.7 70 287.3 80 289.2 90C291 100 327 110 357.2 120C387.3 130 411.7 140 353.2 150C294.7 160 153.3 170 165.7 180C178 190 344 200 350.2 210C356.3 220 202.7 230 158.3 240C114 250 179 260 175.5 270C172 280 100 290 99.3 300C98.7 310 169.3 320 248.2 330C327 340 414 350 457.7 360C501.3 370 501.7 380 473.7 390C445.7 400 389.3 410 338.2 420C287 430 241 440 240.5 450C240 460 285 470 304.7 480C324.3 490 318.7 500 306.7 510C294.7 520 276.3 530 313.7 540C351 550 444 560 428 570C412 580 287 590 224.5 595L162 600L0 600L0 595C0 590 0 580 0 570C0 560 0 550 0 540C0 530 0 520 0 510C0 500 0 490 0 480C0 470 0 460 0 450C0 440 0 430 0 420C0 410 0 400 0 390C0 380 0 370 0 360C0 350 0 340 0 330C0 320 0 310 0 300C0 290 0 280 0 270C0 260 0 250 0 240C0 230 0 220 0 210C0 200 0 190 0 180C0 170 0 160 0 150C0 140 0 130 0 120C0 110 0 100 0 90C0 80 0 70 0 60C0 50 0 40 0 30C0 20 0 10 0 5L0 0Z" fill="#0066FF" stroke-linecap="round" stroke-linejoin="miter"></path></svg>